<svg xmlns="http://www.w3.org/2000/svg" width="118.875" height="118.875" viewBox="0 0 118.875 118.875"><defs><style>.a{fill:#00b40c;}</style></defs><path class="a" d="M119.438,60A59.438,59.438,0,1,1,60,.563,59.437,59.437,0,0,1,119.438,60ZM53.125,91.472l44.1-44.1a3.835,3.835,0,0,0,0-5.423L91.8,36.527a3.835,3.835,0,0,0-5.423,0L50.413,72.491,33.622,55.7a3.835,3.835,0,0,0-5.423,0l-5.423,5.423a3.835,3.835,0,0,0,0,5.423L47.7,91.471a3.835,3.835,0,0,0,5.423,0Z" transform="translate(-0.563 -0.563)"/></svg>